HIERARCHY
ROOT Hips
{
  OFFSET -8.072 29.723 -234.695
  CHANNELS 6 Xposition Yposition Zposition Zrotation Xrotation Yrotation
  JOINT LeftUpLeg
  {
    OFFSET 7.487 -6.326 3.978
    CHANNELS 6 Xposition Yposition Zposition Zrotation Xrotation Yrotation
    JOINT LeftLeg
    {
      OFFSET 0.000 -52.178 0.000
      CHANNELS 6 Xposition Yposition Zposition Zrotation Xrotation Yrotation
      JOINT LeftFoot
      {
        OFFSET -0.000 -41.577 -0.000
        CHANNELS 6 Xposition Yposition Zposition Zrotation Xrotation Yrotation
        End Site
        {
          OFFSET 0.000 -8.307 4.796
        }
      }
    }
  }
  JOINT RightUpLeg
  {
    OFFSET -7.043 -6.977 4.010
    CHANNELS 6 Xposition Yposition Zposition Zrotation Xrotation Yrotation
    JOINT RightLeg
    {
      OFFSET 0.000 -50.161 0.000
      CHANNELS 6 Xposition Yposition Zposition Zrotation Xrotation Yrotation
      JOINT RightFoot
      {
        OFFSET 0.000 -43.301 -0.000
        CHANNELS 6 Xposition Yposition Zposition Zrotation Xrotation Yrotation
        End Site
        {
          OFFSET -0.000 -8.095 4.674
        }
      }
    }
  }
  JOINT Spine
  {
    OFFSET 0.000 5.080 -5.080
    CHANNELS 6 Xposition Yposition Zposition Zrotation Xrotation Yrotation
    JOINT LeftShoulder
    {
      OFFSET -0.000 36.646 0.000
      CHANNELS 6 Xposition Yposition Zposition Zrotation Xrotation Yrotation
      JOINT LeftArm
      {
        OFFSET 21.274 0.000 -0.000
        CHANNELS 6 Xposition Yposition Zposition Zrotation Xrotation Yrotation
        JOINT LeftForeArm
        {
          OFFSET 24.311 0.000 0.000
          CHANNELS 6 Xposition Yposition Zposition Zrotation Xrotation Yrotation
          JOINT LeftHand
          {
            OFFSET 25.824 -0.000 -0.000
            CHANNELS 6 Xposition Yposition Zposition Zrotation Xrotation Yrotation
            JOINT LeftHandThumb1
            {
            OFFSET 4.970 -0.620 3.390
            CHANNELS 6 Xposition Yposition Zposition Zrotation Xrotation Yrotation
              JOINT LeftHandThumb2
              {
              OFFSET 2.150 -0.000 0.000
              CHANNELS 6 Xposition Yposition Zposition Zrotation Xrotation Yrotation
                JOINT LeftHandThumb3
                {
                OFFSET 2.200 -0.000 0.000
                CHANNELS 6 Xposition Yposition Zposition Zrotation Xrotation Yrotation
                  JOINT LeftHandThumb4
                  {
                  OFFSET 1.700 -0.000 0.000
                  CHANNELS 6 Xposition Yposition Zposition Zrotation Xrotation Yrotation
                  }
                }
              }
            }
            JOINT LeftHandIndex1
            {
            OFFSET 8.730 0.680 2.070
            CHANNELS 6 Xposition Yposition Zposition Zrotation Xrotation Yrotation
              JOINT LeftHandIndex2
              {
              OFFSET 2.670 -0.000 0.000
              CHANNELS 6 Xposition Yposition Zposition Zrotation Xrotation Yrotation
                JOINT LeftHandIndex3
                {
                OFFSET 2.130 -0.000 0.000
                CHANNELS 6 Xposition Yposition Zposition Zrotation Xrotation Yrotation
                  JOINT LeftHandIndex4
                  {
                  OFFSET 1.800 -0.000 0.000
                  CHANNELS 6 Xposition Yposition Zposition Zrotation Xrotation Yrotation
                  }
                }
              }
            }
            JOINT LeftHandMiddle1
            {
            OFFSET 9.220 0.670 0.550
            CHANNELS 6 Xposition Yposition Zposition Zrotation Xrotation Yrotation
              JOINT LeftHandMiddle2
              {
              OFFSET 2.660 -0.000 0.000
              CHANNELS 6 Xposition Yposition Zposition Zrotation Xrotation Yrotation
                JOINT LeftHandMiddle3
                {
                OFFSET 2.280 -0.000 0.000
                CHANNELS 6 Xposition Yposition Zposition Zrotation Xrotation Yrotation
                  JOINT LeftHandMiddle4
                  {
                  OFFSET 1.500 -0.000 0.000
                  CHANNELS 6 Xposition Yposition Zposition Zrotation Xrotation Yrotation
                  }
                }
              }
            }
            JOINT LeftHandRing1
            {
            OFFSET 9.250 0.670 -1.130
            CHANNELS 6 Xposition Yposition Zposition Zrotation Xrotation Yrotation
              JOINT LeftHandRing2
              {
              OFFSET 2.470 -0.000 0.000
              CHANNELS 6 Xposition Yposition Zposition Zrotation Xrotation Yrotation
                JOINT LeftHandRing3
                {
                OFFSET 2.210 -0.000 0.000
                CHANNELS 6 Xposition Yposition Zposition Zrotation Xrotation Yrotation
                  JOINT LeftHandRing4
                  {
                  OFFSET 1.800 -0.000 0.000
                  CHANNELS 6 Xposition Yposition Zposition Zrotation Xrotation Yrotation
                  }
                }
              }
            }
            JOINT LeftHandPinky1
            {
            OFFSET 9.350 0.660 -2.720
            CHANNELS 6 Xposition Yposition Zposition Zrotation Xrotation Yrotation
              JOINT LeftHandPinky2
              {
              OFFSET 1.630 -0.000 0.000
              CHANNELS 6 Xposition Yposition Zposition Zrotation Xrotation Yrotation
                JOINT LeftHandPinky3
                {
                OFFSET 1.710 -0.000 0.000
                CHANNELS 6 Xposition Yposition Zposition Zrotation Xrotation Yrotation
                  JOINT LeftHandPinky4
                  {
                  OFFSET 1.800 -0.000 0.000
                  CHANNELS 6 Xposition Yposition Zposition Zrotation Xrotation Yrotation
                  }
                }
              }
            }
          }
        }
      }
    }
    JOINT RightShoulder
    {
      OFFSET -0.000 36.646 0.000
      CHANNELS 6 Xposition Yposition Zposition Zrotation Xrotation Yrotation
      JOINT RightArm
      {
        OFFSET -21.749 0.000 -0.000
        CHANNELS 6 Xposition Yposition Zposition Zrotation Xrotation Yrotation
        JOINT RightForeArm
        {
          OFFSET -22.942 0.000 0.000
          CHANNELS 6 Xposition Yposition Zposition Zrotation Xrotation Yrotation
          JOINT RightHand
          {
            OFFSET -26.965 0.000 -0.000
            CHANNELS 6 Xposition Yposition Zposition Zrotation Xrotation Yrotation
            JOINT RightHandThumb1
            {
            OFFSET -4.970 -0.620 3.390
            CHANNELS 6 Xposition Yposition Zposition Zrotation Xrotation Yrotation
              JOINT RightHandThumb2
              {
              OFFSET -2.150 0.000 0.000
              CHANNELS 6 Xposition Yposition Zposition Zrotation Xrotation Yrotation
                JOINT RightHandThumb3
                {
                OFFSET -2.200 0.000 0.000
                CHANNELS 6 Xposition Yposition Zposition Zrotation Xrotation Yrotation
                  JOINT RightHandThumb4
                  {
                  OFFSET -1.700 0.000 0.000
                  CHANNELS 6 Xposition Yposition Zposition Zrotation Xrotation Yrotation
                  }
                }
              }
            }
            JOINT RightHandIndex1
            {
            OFFSET -8.730 0.680 2.070
            CHANNELS 6 Xposition Yposition Zposition Zrotation Xrotation Yrotation
              JOINT RightHandIndex2
              {
              OFFSET -2.670 0.000 0.000
              CHANNELS 6 Xposition Yposition Zposition Zrotation Xrotation Yrotation
                JOINT RightHandIndex3
                {
                OFFSET -2.130 0.000 0.000
                CHANNELS 6 Xposition Yposition Zposition Zrotation Xrotation Yrotation
                  JOINT RightHandIndex4
                  {
                  OFFSET -1.800 0.000 0.000
                  CHANNELS 6 Xposition Yposition Zposition Zrotation Xrotation Yrotation
                  }
                }
              }
            }
            JOINT RightHandMiddle1
            {
            OFFSET -9.220 0.670 0.550
            CHANNELS 6 Xposition Yposition Zposition Zrotation Xrotation Yrotation
              JOINT RightHandMiddle2
              {
              OFFSET -2.660 0.000 0.000
              CHANNELS 6 Xposition Yposition Zposition Zrotation Xrotation Yrotation
                JOINT RightHandMiddle3
                {
                OFFSET -2.280 0.000 0.000
                CHANNELS 6 Xposition Yposition Zposition Zrotation Xrotation Yrotation
                  JOINT RightHandMiddle4
                  {
                  OFFSET -1.500 0.000 0.000
                  CHANNELS 6 Xposition Yposition Zposition Zrotation Xrotation Yrotation
                  }
                }
              }
            }
            JOINT RightHandRing1
            {
            OFFSET -9.250 0.670 -1.130
            CHANNELS 6 Xposition Yposition Zposition Zrotation Xrotation Yrotation
              JOINT RightHandRing2
              {
              OFFSET -2.470 0.000 0.000
              CHANNELS 6 Xposition Yposition Zposition Zrotation Xrotation Yrotation
                JOINT RightHandRing3
                {
                OFFSET -2.210 0.000 0.000
                CHANNELS 6 Xposition Yposition Zposition Zrotation Xrotation Yrotation
                  JOINT RightHandRing4
                  {
                  OFFSET -1.800 0.000 0.000
                  CHANNELS 6 Xposition Yposition Zposition Zrotation Xrotation Yrotation
                  }
                }
              }
            }
            JOINT RightHandPinky1
            {
            OFFSET -9.350 0.660 -2.720
            CHANNELS 6 Xposition Yposition Zposition Zrotation Xrotation Yrotation
              JOINT RightHandPinky2
              {
              OFFSET -1.630 0.000 0.000
              CHANNELS 6 Xposition Yposition Zposition Zrotation Xrotation Yrotation
                JOINT RightHandPinky3
                {
                OFFSET -1.710 0.000 0.000
                CHANNELS 6 Xposition Yposition Zposition Zrotation Xrotation Yrotation
                  JOINT RightHandPinky4
                  {
                  OFFSET -1.800 0.000 0.000
                  CHANNELS 6 Xposition Yposition Zposition Zrotation Xrotation Yrotation
                  }
                }
              }
            }
          }
        }
      }
    }
    JOINT Neck
    {
      OFFSET -0.000 36.646 0.000
      CHANNELS 6 Xposition Yposition Zposition Zrotation Xrotation Yrotation
      JOINT Head
      {
        OFFSET -0.000 15.888 -0.000
        CHANNELS 6 Xposition Yposition Zposition Zrotation Xrotation Yrotation
        End Site
        {
          OFFSET -0.000 0.064 -0.000
        }
      }
    }
  }
}
MOTION
Frames:	4
Frame Time:	0.0333333
-32.6368 32.7123 -227.549 3.76322 16.6414 -31.7684 7.72496 -6.82615 3.5738 5.83063 -32.3838 -0.927895 1.19209e-05 -52.1159 4.76837e-05 -6.15078 7.99279 0.858491 -2.38419e-05 -44.8149 -2.38419e-05 -6.46869 -21.0868 -5.78873 -6.84463 -8.08852 3.15111 0.337405 -14.2576 -5.67526 -1.19209e-05 -49.015 1.19209e-05 13.305 17.6314 -7.16685e-06 -5.96046e-05 -43.7795 2.38419e-05 -10.8233 -27.9131 -10.5292 3.57628e-05 5.15253 -5.15251 2.55989 -17.4219 0.225761 -1.19209e-05 36.6467 2.38419e-05 -41.998 1.19528e-05 -2.05291 21.7633 2.98023e-06 -5.96046e-05 -25.9763 36.7156 1.35315 23.7704 4.76837e-05 4.17233e-05 4.06733e-05 -1.72878e-06 -110.19 28.0787 -1.19209e-05 1.19209e-05 1.81804 -0.0381706 -5.929 0.0062 0.0497 0.0339 0 0 0 0 0.0215 0 0 0 0 0 0.022 0 0 0 0 0 0.017 0 0 0 0 -0.0068 0.0873 0.0207 0 0 0 0 0.0267 0 0 0 0 0 0.0213 0 0 0 0 0 0.018 0 0 0 0 -0.0067 0.0922 0.0055 0 0 0 0 0.0266 0 0 0 0 0 0.0228 0 0 0 0 0 0.015 0 0 0 0 -0.0067 0.0925 -0.0113 0 0 0 0 0.0247 0 0 0 0 0 0.0221 0 0 0 0 0 0.018 0 0 0 0 -0.0066 0.0935 -0.0272 0 0 0 0 0.0163 0 0 0 0 0 0.0171 0 0 0 0 0 0.018 0 0 0 0 -1.19209e-05 36.6467 2.38419e-05 34.3507 -2.56132e-06 2.0216 -22.1002 0 -1.19209e-05 40.1027 56.567 17.3445 -26.6319 1.19209e-05 4.76837e-05 0.000112412 9.63533e-06 96.104 -28.2894 -3.57628e-05 -5.96046e-06 -6.258 0.117063 -7.86322 -0.0062 0.0497 0.0339 45 0 0 0 0.0215 0 0 -45 0 0 0.022 0 0 -45 0 0 0.017 0 0 0 0 0.0068 0.0873 0.0207 45 0 0 0 0.0267 0 80 0 0 0 0.0213 0 90 0 0 0 0.018 0 0 0 0 0.0067 0.0922 0.0055 45 0 0 0 0.0266 0 80 0 0 0 0.0228 0 90 0 0 0 0.015 0 0 0 0 0.0067 0.0925 -0.0113 45 0 0 0 0.0247 0 80 0 0 0 0.0221 0 90 0 0 0 0.018 0 0 0 0 0.0066 0.0935 -0.0272 45 0 0 0 0.0163 0 80 0 0 0 0.0171 0 90 0 0 0 0.018 0 0 0 0 -1.19209e-05 36.6467 2.38419e-05 12.4563 15.632 -3.40631 1.19209e-05 15.0161 1.19209e-05 7.68396e-06 -1.19528e-05 -5.12264e-06 
-32.6368 32.7123 -227.549 3.76322 16.6414 -31.7684 7.72496 -6.82615 3.5738 5.83063 -32.3838 -0.927895 1.19209e-05 -52.1159 4.76837e-05 -6.15078 7.99279 0.858491 -2.38419e-05 -44.8149 -2.38419e-05 -6.46869 -21.0868 -5.78873 -6.84463 -8.08852 3.15111 0.337405 -14.2576 -5.67526 -1.19209e-05 -49.015 1.19209e-05 13.305 17.6314 -7.16685e-06 -5.96046e-05 -43.7795 2.38419e-05 -10.8233 -27.9131 -10.5292 3.57628e-05 5.15253 -5.15251 2.55989 -17.4219 0.225761 -1.19209e-05 36.6467 2.38419e-05 -41.998 1.19528e-05 -2.05291 21.7633 2.98023e-06 -5.96046e-05 -25.9763 36.7156 1.35315 23.7704 4.76837e-05 4.17233e-05 4.06733e-05 -1.72878e-06 -110.19 28.0787 -1.19209e-05 1.19209e-05 1.81804 -0.0381706 -5.929 0.0062 0.0497 0.0339 0 0 0 0 0.0215 0 0 0 0 0 0.022 0 0 0 0 0 0.017 0 0 0 0 -0.0068 0.0873 0.0207 0 0 0 0 0.0267 0 0 0 0 0 0.0213 0 0 0 0 0 0.018 0 0 0 0 -0.0067 0.0922 0.0055 0 0 0 0 0.0266 0 0 0 0 0 0.0228 0 0 0 0 0 0.015 0 0 0 0 -0.0067 0.0925 -0.0113 0 0 0 0 0.0247 0 0 0 0 0 0.0221 0 0 0 0 0 0.018 0 0 0 0 -0.0066 0.0935 -0.0272 0 0 0 0 0.0163 0 0 0 0 0 0.0171 0 0 0 0 0 0.018 0 0 0 0 -1.19209e-05 36.6467 2.38419e-05 34.3507 -2.56132e-06 2.0216 -22.1002 0 -1.19209e-05 40.1027 56.567 17.3445 -26.6319 1.19209e-05 4.76837e-05 0.000112412 9.63533e-06 96.104 -28.2894 -3.57628e-05 -5.96046e-06 -6.258 0.117063 -7.86322 -0.0062 0.0497 0.0339 45 0 0 0 0.0215 0 0 -45 0 0 0.022 0 0 -45 0 0 0.017 0 0 0 0 0.0068 0.0873 0.0207 45 0 0 0 0.0267 0 80 0 0 0 0.0213 0 90 0 0 0 0.018 0 0 0 0 0.0067 0.0922 0.0055 45 0 0 0 0.0266 0 80 0 0 0 0.0228 0 90 0 0 0 0.015 0 0 0 0 0.0067 0.0925 -0.0113 45 0 0 0 0.0247 0 80 0 0 0 0.0221 0 90 0 0 0 0.018 0 0 0 0 0.0066 0.0935 -0.0272 45 0 0 0 0.0163 0 80 0 0 0 0.0171 0 90 0 0 0 0.018 0 0 0 0 -1.19209e-05 36.6467 2.38419e-05 12.4563 15.632 -3.40631 1.19209e-05 15.0161 1.19209e-05 7.68396e-06 -1.19528e-05 -5.12264e-06 
-34.5647 32.5608 -225.75 3.74101 14.7949 -33.3098 8.04214 -6.88501 3.83919 4.61828 -29.4738 -3.78154 -4.76837e-05 -52.0184 3.57628e-05 -5.13924 6.49735 0.583084 -1.19209e-05 -44.5512 -3.57628e-05 -5.89657 -19.9603 -5.21918 -7.0104 -8.26913 2.78636 -4.38475 -15.7145 -11.7154 1.19209e-05 -48.9236 -1.19209e-05 18.5362 26.6982 -3.82264e-06 0 -43.8589 0 -8.45795 -28.0809 -8.43924 2.38419e-05 5.18596 -5.18596 2.71857 -15.8455 -0.140125 -1.19209e-05 36.6466 -5.96046e-05 -43.2718 6.83019e-06 -2.11685 21.8124 1.19209e-05 3.57628e-05 -24.1273 37.1927 0.506269 23.6433 2.38419e-05 5.96046e-06 4.2338e-05 -1.2618e-05 -110.534 27.9577 -1.19209e-05 1.19209e-05 1.85942 -0.0304126 -5.94589 0.0062 0.0497 0.0339 0 0 0 0 0.0215 0 0 0 0 0 0.022 0 0 0 0 0 0.017 0 0 0 0 -0.0068 0.0873 0.0207 0 0 0 0 0.0267 0 0 0 0 0 0.0213 0 0 0 0 0 0.018 0 0 0 0 -0.0067 0.0922 0.0055 0 0 0 0 0.0266 0 0 0 0 0 0.0228 0 0 0 0 0 0.015 0 0 0 0 -0.0067 0.0925 -0.0113 0 0 0 0 0.0247 0 0 0 0 0 0.0221 0 0 0 0 0 0.018 0 0 0 0 -0.0066 0.0935 -0.0272 0 0 0 0 0.0163 0 0 0 0 0 0.0171 0 0 0 0 0 0.018 0 0 0 0 -1.19209e-05 36.6466 -5.96046e-05 34.2122 -3.41509e-06 2.08625 -22.1324 2.38419e-05 2.38419e-05 33.1137 60.7926 25.6679 -26.7685 1.78814e-05 -4.76837e-05 5.36501e-05 2.18323e-05 95.2002 -27.6199 0 -5.96046e-06 -6.70723 0.135042 -7.95444 -0.0062 0.0497 0.0339 45 0 0 0 0.0215 0 0 -45 0 0 0.022 0 0 -45 0 0 0.017 0 0 0 0 0.0068 0.0873 0.0207 45 0 0 0 0.0267 0 80 0 0 0 0.0213 0 90 0 0 0 0.018 0 0 0 0 0.0067 0.0922 0.0055 45 0 0 0 0.0266 0 80 0 0 0 0.0228 0 90 0 0 0 0.015 0 0 0 0 0.0067 0.0925 -0.0113 45 0 0 0 0.0247 0 80 0 0 0 0.0221 0 90 0 0 0 0.018 0 0 0 0 0.0066 0.0935 -0.0272 45 0 0 0 0.0163 0 80 0 0 0 0.0171 0 90 0 0 0 0.018 0 0 0 0 -1.19209e-05 36.6466 -5.96046e-05 11.7452 15.1877 -3.11778 0 14.9521 2.38419e-05 9.39151e-06 -8.96462e-06 3.4151e-06 
-34.5647 32.5608 -225.75 3.74101 14.7949 -33.3098 8.04214 -6.88501 3.83919 4.61828 -29.4738 -3.78154 -4.76837e-05 -52.0184 3.57628e-05 -5.13924 6.49735 0.583084 -1.19209e-05 -44.5512 -3.57628e-05 -5.89657 -19.9603 -5.21918 -7.0104 -8.26913 2.78636 -4.38475 -15.7145 -11.7154 1.19209e-05 -48.9236 -1.19209e-05 18.5362 26.6982 -3.82264e-06 0 -43.8589 0 -8.45795 -28.0809 -8.43924 2.38419e-05 5.18596 -5.18596 2.71857 -15.8455 -0.140125 -1.19209e-05 36.6466 -5.96046e-05 -43.2718 6.83019e-06 -2.11685 21.8124 1.19209e-05 3.57628e-05 -24.1273 37.1927 0.506269 23.6433 2.38419e-05 5.96046e-06 4.2338e-05 -1.2618e-05 -110.534 27.9577 -1.19209e-05 1.19209e-05 1.85942 -0.0304126 -5.94589 0.0062 0.0497 0.0339 0 0 0 0 0.0215 0 0 0 0 0 0.022 0 0 0 0 0 0.017 0 0 0 0 -0.0068 0.0873 0.0207 0 0 0 0 0.0267 0 0 0 0 0 0.0213 0 0 0 0 0 0.018 0 0 0 0 -0.0067 0.0922 0.0055 0 0 0 0 0.0266 0 0 0 0 0 0.0228 0 0 0 0 0 0.015 0 0 0 0 -0.0067 0.0925 -0.0113 0 0 0 0 0.0247 0 0 0 0 0 0.0221 0 0 0 0 0 0.018 0 0 0 0 -0.0066 0.0935 -0.0272 0 0 0 0 0.0163 0 0 0 0 0 0.0171 0 0 0 0 0 0.018 0 0 0 0 -1.19209e-05 36.6466 -5.96046e-05 34.2122 -3.41509e-06 2.08625 -22.1324 2.38419e-05 2.38419e-05 33.1137 60.7926 25.6679 -26.7685 1.78814e-05 -4.76837e-05 5.36501e-05 2.18323e-05 95.2002 -27.6199 0 -5.96046e-06 -6.70723 0.135042 -7.95444 -0.0062 0.0497 0.0339 45 0 0 0 0.0215 0 0 -45 0 0 0.022 0 0 -45 0 0 0.017 0 0 0 0 0.0068 0.0873 0.0207 45 0 0 0 0.0267 0 80 0 0 0 0.0213 0 90 0 0 0 0.018 0 0 0 0 0.0067 0.0922 0.0055 45 0 0 0 0.0266 0 80 0 0 0 0.0228 0 90 0 0 0 0.015 0 0 0 0 0.0067 0.0925 -0.0113 45 0 0 0 0.0247 0 80 0 0 0 0.0221 0 90 0 0 0 0.018 0 0 0 0 0.0066 0.0935 -0.0272 45 0 0 0 0.0163 0 80 0 0 0 0.0171 0 90 0 0 0 0.018 0 0 0 0 -1.19209e-05 36.6466 -5.96046e-05 11.7452 15.1877 -3.11778 0 14.9521 2.38419e-05 9.39151e-06 -8.96462e-06 3.4151e-06 
